<svg version="1.1" id="Layer_1" xmlns="http://www.w3.org/2000/svg" xmlns:xlink="http://www.w3.org/1999/xlink" x="0px" y="0px"
	 width="100%" viewBox="0 0 512 512" enable-background="new 0 0 512 512" xml:space="preserve">
<path fill="#080F53" opacity="1.000000" stroke="none" 
	d="
M299.000000,513.000000 
	C199.357529,513.000000 100.215050,513.000000 1.036289,513.000000 
	C1.036289,342.399170 1.036289,171.798325 1.036289,1.098744 
	C171.559158,1.098744 342.118378,1.098744 512.838806,1.098744 
	C512.838806,171.666550 512.838806,342.333252 512.838806,513.000000 
	C441.798309,513.000000 370.649139,513.000000 299.000000,513.000000 
M228.925644,79.352089 
	C227.549042,80.285065 226.149063,81.185539 224.799377,82.155960 
	C207.673431,94.469734 204.691559,118.621162 218.698669,134.356308 
	C222.607300,138.747131 227.614471,142.160065 232.164810,146.061981 
	C228.953278,147.892960 225.256989,149.722198 221.850189,151.986938 
	C196.028717,169.152328 195.759094,206.191940 221.831360,222.877274 
	C243.371201,236.662003 266.497467,236.809708 288.840027,225.402634 
	C314.796600,212.150406 319.927551,180.043076 300.099152,158.700241 
	C295.147247,153.370148 288.474365,149.638916 282.679138,145.238647 
	C284.447113,144.022186 286.816284,142.530624 289.036438,140.843002 
	C310.675476,124.394081 310.177124,95.655251 287.420807,80.842422 
	C268.807312,68.726288 249.179611,69.225616 228.925644,79.352089 
M86.953339,214.526672 
	C92.782463,219.352539 97.931152,225.616211 104.559578,228.753098 
	C131.925079,241.703766 162.766861,228.742569 173.823532,199.344696 
	C185.671265,167.843567 184.812729,135.679306 174.708115,103.886108 
	C170.711746,91.311958 162.645981,81.219658 149.927094,76.018532 
	C128.065765,67.078789 93.488739,70.146942 79.804466,106.346474 
	C70.901459,129.897934 70.751045,154.236389 73.604378,178.742966 
	C75.079712,191.414276 79.012169,203.397995 86.953339,214.526672 
M395.103668,72.149193 
	C364.499725,70.044426 348.030304,84.547745 340.357208,105.385048 
	C328.846344,136.644302 328.015839,168.818085 339.329620,200.214249 
	C352.322876,236.271042 385.818634,238.244400 407.686951,228.607483 
	C423.817993,221.498825 432.237030,207.540604 436.788544,191.316422 
	C444.325745,164.449615 443.950226,137.291168 436.909821,110.437691 
	C431.407379,89.450394 418.787659,75.175789 395.103668,72.149193 
M208.225891,359.131653 
	C207.873840,362.441254 210.136627,361.287598 211.831268,361.314270 
	C225.609848,361.531128 239.517365,360.718994 253.127090,362.361969 
	C265.240631,363.824249 274.979614,370.694366 278.504395,383.391663 
	C281.972198,395.883606 279.601349,407.503906 269.911041,416.374634 
	C258.260529,427.039673 243.769928,428.232269 229.083466,425.349548 
	C220.925720,423.748291 213.133392,420.285278 205.011810,417.607086 
	C205.011810,422.267059 205.162506,427.242950 204.949615,432.203217 
	C204.839584,434.767029 205.718918,436.029114 208.076141,436.980713 
	C221.270218,442.307037 235.000916,442.524353 248.873840,441.517120 
	C259.509705,440.744934 269.395630,437.668457 278.494141,432.001404 
	C307.825867,413.731873 306.613617,367.377045 278.039795,352.627045 
	C269.508057,348.222961 260.465149,345.482208 250.861938,345.130493 
	C243.148514,344.847992 235.416473,345.073364 227.456253,345.073364 
	C228.620728,329.524231 229.724457,314.786346 230.871109,299.475494 
	C251.505371,299.475494 271.698730,299.475494 291.830994,299.475494 
	C291.830994,293.763123 291.830994,288.667389 291.830994,283.388489 
	C265.783539,283.388489 240.021973,283.388489 213.956741,283.388489 
	C212.993729,296.018158 212.039581,308.462891 211.097321,320.908508 
	C210.154251,333.364258 209.223099,345.820953 208.225891,359.131653 
M422.729584,376.846741 
	C414.957886,364.749939 402.744171,360.270142 388.894989,357.777985 
	C393.511749,355.861572 397.614471,354.481567 401.418549,352.521881 
	C415.584351,345.224243 422.246643,333.215942 421.838593,317.552856 
	C421.432953,301.983276 413.390503,290.960968 399.077515,285.401001 
	C378.775726,277.514709 358.632538,279.601074 339.056366,288.564026 
	C338.057159,289.021545 336.816193,290.316101 336.773499,291.269531 
	C336.546692,296.332581 336.666870,301.411133 336.666870,307.044098 
	C338.748474,305.798706 340.027649,305.027954 341.311951,304.265808 
	C353.856842,296.821014 367.304382,294.378052 381.643494,297.094543 
	C393.095947,299.264160 399.790009,306.073029 401.543091,317.184265 
	C403.501648,329.597961 398.920380,339.805542 388.975189,345.223053 
	C379.886353,350.174103 369.928619,350.782837 359.907959,351.011780 
	C355.659027,351.108856 351.406036,351.027954 347.326721,351.027954 
	C347.326721,356.531342 347.326721,361.299072 347.326721,366.260986 
	C351.286133,366.260986 354.977875,365.931671 358.591125,366.324524 
	C368.308990,367.381134 378.194275,367.913177 387.642090,370.191711 
	C400.533875,373.300873 407.628815,383.142456 408.028809,395.911804 
	C408.405304,407.930847 401.386444,418.430725 389.620209,422.920380 
	C375.132996,428.448212 360.542297,427.559723 346.190399,422.510956 
	C340.726013,420.588715 335.658295,417.538788 330.098541,414.852386 
	C330.098541,420.026337 330.286560,424.696350 330.031982,429.342041 
	C329.864258,432.402069 330.697815,434.133484 333.712555,435.343231 
	C357.678589,444.959991 381.638306,445.175781 404.712311,433.484985 
	C426.461609,422.465302 434.290741,396.830200 422.729584,376.846741 
M175.951447,285.809204 
	C176.149307,281.952240 173.210175,283.236908 171.394012,283.232086 
	C145.733292,283.163727 120.072327,283.185577 94.411423,283.185608 
	C93.122147,283.185608 91.832870,283.185608 90.297997,283.185608 
	C90.297997,335.389984 90.297997,387.121185 90.297997,439.066620 
	C96.858849,439.066620 103.236893,439.066620 110.112236,439.066620 
	C110.112236,416.070465 110.112236,393.343323 110.112236,370.103394 
	C130.650665,370.103394 150.695786,370.103394 170.597336,370.103394 
	C170.597336,364.354218 170.597336,359.132507 170.597336,353.615112 
	C150.276779,353.615112 130.333160,353.615112 110.296539,353.615112 
	C110.296539,335.582092 110.296539,317.870117 110.296539,299.694458 
	C132.344162,299.694458 154.073105,299.694458 175.953064,299.694458 
	C175.953064,295.071136 175.953064,290.913361 175.951447,285.809204 
z"/>
<path fill="#FBFBFC" opacity="1.000000" stroke="none" 
	d="
M229.238846,79.161980 
	C249.179611,69.225616 268.807312,68.726288 287.420807,80.842422 
	C310.177124,95.655251 310.675476,124.394081 289.036438,140.843002 
	C286.816284,142.530624 284.447113,144.022186 282.679138,145.238647 
	C288.474365,149.638916 295.147247,153.370148 300.099152,158.700241 
	C319.927551,180.043076 314.796600,212.150406 288.840027,225.402634 
	C266.497467,236.809708 243.371201,236.662003 221.831360,222.877274 
	C195.759094,206.191940 196.028717,169.152328 221.850189,151.986938 
	C225.256989,149.722198 228.953278,147.892960 232.164810,146.061981 
	C227.614471,142.160065 222.607300,138.747131 218.698669,134.356308 
	C204.691559,118.621162 207.673431,94.469734 224.799377,82.155960 
	C226.149063,81.185539 227.549042,80.285065 229.238846,79.161980 
M245.326508,215.414734 
	C246.940094,215.810165 248.537796,216.294189 250.169769,216.587158 
	C264.860321,219.224243 280.103333,213.261337 286.571381,202.381958 
	C299.571442,180.515640 284.662201,154.929718 258.379852,154.002136 
	C241.524200,153.407257 226.888611,164.204453 224.090759,179.298386 
	C221.039581,195.759018 228.974396,209.685379 245.326508,215.414734 
M251.306412,138.580688 
	C254.290268,138.719864 257.293823,139.148560 260.254547,138.947357 
	C272.153290,138.138702 282.906647,128.721619 284.876343,117.613686 
	C286.968781,105.813942 280.496887,94.364113 268.986145,89.501297 
	C253.927170,83.139503 235.979126,90.158653 231.102768,104.316788 
	C225.881119,119.477425 234.230209,134.091156 251.306412,138.580688 
z"/>
<path fill="#FCFCFC" opacity="1.000000" stroke="none" 
	d="
M86.729919,214.248169 
	C79.012169,203.397995 75.079712,191.414276 73.604378,178.742966 
	C70.751045,154.236389 70.901459,129.897934 79.804466,106.346474 
	C93.488739,70.146942 128.065765,67.078789 149.927094,76.018532 
	C162.645981,81.219658 170.711746,91.311958 174.708115,103.886108 
	C184.812729,135.679306 185.671265,167.843567 173.823532,199.344696 
	C162.766861,228.742569 131.925079,241.703766 104.559578,228.753098 
	C97.931152,225.616211 92.782463,219.352539 86.729919,214.248169 
M153.758362,201.077652 
	C158.539780,191.005997 160.671753,180.261063 161.383713,169.251282 
	C162.743500,148.223801 162.767654,127.275177 154.917862,107.210495 
	C149.778839,94.074821 140.336609,87.183647 127.934715,87.173546 
	C115.162621,87.163155 105.156845,94.110352 99.851570,106.698700 
	C91.249512,127.109619 90.879898,148.575272 92.773903,170.049194 
	C93.623131,179.677551 96.154427,189.362335 99.339241,198.529266 
	C103.535713,210.608047 112.792252,217.319809 125.786972,217.866013 
	C138.311493,218.392456 147.511337,212.797119 153.758362,201.077652 
z"/>
<path fill="#FCFCFC" opacity="1.000000" stroke="none" 
	d="
M395.556946,72.193253 
	C418.787659,75.175789 431.407379,89.450394 436.909821,110.437691 
	C443.950226,137.291168 444.325745,164.449615 436.788544,191.316422 
	C432.237030,207.540604 423.817993,221.498825 407.686951,228.607483 
	C385.818634,238.244400 352.322876,236.271042 339.329620,200.214249 
	C328.015839,168.818085 328.846344,136.644302 340.357208,105.385048 
	C348.030304,84.547745 364.499725,70.044426 395.556946,72.193253 
M378.153229,216.721008 
	C394.627930,219.763916 405.834412,215.417374 412.722260,202.796310 
	C415.006195,198.611237 416.712158,193.999847 417.978058,189.389969 
	C422.579224,172.634277 422.709473,155.484177 421.506775,138.324417 
	C420.714996,127.027550 418.962494,115.875931 414.185272,105.393929 
	C409.393677,94.880524 401.850708,88.086449 389.980255,87.330872 
	C378.413208,86.594597 369.036102,90.958755 362.957703,100.970779 
	C360.317596,105.319443 358.075928,110.143425 356.803528,115.049812 
	C350.251801,140.313126 349.822479,165.785019 356.388275,191.070908 
	C359.347260,202.466431 365.002014,212.442108 378.153229,216.721008 
z"/>
<path fill="#FAFAFB" opacity="1.000000" stroke="none" 
	d="
M208.256317,358.704437 
	C209.223099,345.820953 210.154251,333.364258 211.097321,320.908508 
	C212.039581,308.462891 212.993729,296.018158 213.956741,283.388489 
	C240.021973,283.388489 265.783539,283.388489 291.830994,283.388489 
	C291.830994,288.667389 291.830994,293.763123 291.830994,299.475494 
	C271.698730,299.475494 251.505371,299.475494 230.871109,299.475494 
	C229.724457,314.786346 228.620728,329.524231 227.456253,345.073364 
	C235.416473,345.073364 243.148514,344.847992 250.861938,345.130493 
	C260.465149,345.482208 269.508057,348.222961 278.039795,352.627045 
	C306.613617,367.377045 307.825867,413.731873 278.494141,432.001404 
	C269.395630,437.668457 259.509705,440.744934 248.873840,441.517120 
	C235.000916,442.524353 221.270218,442.307037 208.076141,436.980713 
	C205.718918,436.029114 204.839584,434.767029 204.949615,432.203217 
	C205.162506,427.242950 205.011810,422.267059 205.011810,417.607086 
	C213.133392,420.285278 220.925720,423.748291 229.083466,425.349548 
	C243.769928,428.232269 258.260529,427.039673 269.911041,416.374634 
	C279.601349,407.503906 281.972198,395.883606 278.504395,383.391663 
	C274.979614,370.694366 265.240631,363.824249 253.127090,362.361969 
	C239.517365,360.718994 225.609848,361.531128 211.831268,361.314270 
	C210.136627,361.287598 207.873840,362.441254 208.256317,358.704437 
z"/>
<path fill="#FBFBFC" opacity="1.000000" stroke="none" 
	d="
M422.888123,377.177246 
	C434.290741,396.830200 426.461609,422.465302 404.712311,433.484985 
	C381.638306,445.175781 357.678589,444.959991 333.712555,435.343231 
	C330.697815,434.133484 329.864258,432.402069 330.031982,429.342041 
	C330.286560,424.696350 330.098541,420.026337 330.098541,414.852386 
	C335.658295,417.538788 340.726013,420.588715 346.190399,422.510956 
	C360.542297,427.559723 375.132996,428.448212 389.620209,422.920380 
	C401.386444,418.430725 408.405304,407.930847 408.028809,395.911804 
	C407.628815,383.142456 400.533875,373.300873 387.642090,370.191711 
	C378.194275,367.913177 368.308990,367.381134 358.591125,366.324524 
	C354.977875,365.931671 351.286133,366.260986 347.326721,366.260986 
	C347.326721,361.299072 347.326721,356.531342 347.326721,351.027954 
	C351.406036,351.027954 355.659027,351.108856 359.907959,351.011780 
	C369.928619,350.782837 379.886353,350.174103 388.975189,345.223053 
	C398.920380,339.805542 403.501648,329.597961 401.543091,317.184265 
	C399.790009,306.073029 393.095947,299.264160 381.643494,297.094543 
	C367.304382,294.378052 353.856842,296.821014 341.311951,304.265808 
	C340.027649,305.027954 338.748474,305.798706 336.666870,307.044098 
	C336.666870,301.411133 336.546692,296.332581 336.773499,291.269531 
	C336.816193,290.316101 338.057159,289.021545 339.056366,288.564026 
	C358.632538,279.601074 378.775726,277.514709 399.077515,285.401001 
	C413.390503,290.960968 421.432953,301.983276 421.838593,317.552856 
	C422.246643,333.215942 415.584351,345.224243 401.418549,352.521881 
	C397.614471,354.481567 393.511749,355.861572 388.894989,357.777985 
	C402.744171,360.270142 414.957886,364.749939 422.888123,377.177246 
z"/>
<path fill="#FDFDFD" opacity="1.000000" stroke="none" 
	d="
M175.952255,286.282379 
	C175.953064,290.913361 175.953064,295.071136 175.953064,299.694458 
	C154.073105,299.694458 132.344162,299.694458 110.296539,299.694458 
	C110.296539,317.870117 110.296539,335.582092 110.296539,353.615112 
	C130.333160,353.615112 150.276779,353.615112 170.597336,353.615112 
	C170.597336,359.132507 170.597336,364.354218 170.597336,370.103394 
	C150.695786,370.103394 130.650665,370.103394 110.112236,370.103394 
	C110.112236,393.343323 110.112236,416.070465 110.112236,439.066620 
	C103.236893,439.066620 96.858849,439.066620 90.297997,439.066620 
	C90.297997,387.121185 90.297997,335.389984 90.297997,283.185608 
	C91.832870,283.185608 93.122147,283.185608 94.411423,283.185608 
	C120.072327,283.185577 145.733292,283.163727 171.394012,283.232086 
	C173.210175,283.236908 176.149307,281.952240 175.952255,286.282379 
z"/>
<path fill="#0A1154" opacity="1.000000" stroke="none" 
	d="
M244.936920,215.308136 
	C228.974396,209.685379 221.039581,195.759018 224.090759,179.298386 
	C226.888611,164.204453 241.524200,153.407257 258.379852,154.002136 
	C284.662201,154.929718 299.571442,180.515640 286.571381,202.381958 
	C280.103333,213.261337 264.860321,219.224243 250.169769,216.587158 
	C248.537796,216.294189 246.940094,215.810165 244.936920,215.308136 
z"/>
<path fill="#0A1154" opacity="1.000000" stroke="none" 
	d="
M250.908493,138.433823 
	C234.230209,134.091156 225.881119,119.477425 231.102768,104.316788 
	C235.979126,90.158653 253.927170,83.139503 268.986145,89.501297 
	C280.496887,94.364113 286.968781,105.813942 284.876343,117.613686 
	C282.906647,128.721619 272.153290,138.138702 260.254547,138.947357 
	C257.293823,139.148560 254.290268,138.719864 250.908493,138.433823 
z"/>
<path fill="#091054" opacity="1.000000" stroke="none" 
	d="
M153.564056,201.396698 
	C147.511337,212.797119 138.311493,218.392456 125.786972,217.866013 
	C112.792252,217.319809 103.535713,210.608047 99.339241,198.529266 
	C96.154427,189.362335 93.623131,179.677551 92.773903,170.049194 
	C90.879898,148.575272 91.249512,127.109619 99.851570,106.698700 
	C105.156845,94.110352 115.162621,87.163155 127.934715,87.173546 
	C140.336609,87.183647 149.778839,94.074821 154.917862,107.210495 
	C162.767654,127.275177 162.743500,148.223801 161.383713,169.251282 
	C160.671753,180.261063 158.539780,191.005997 153.564056,201.396698 
z"/>
<path fill="#091054" opacity="1.000000" stroke="none" 
	d="
M377.787292,216.545258 
	C365.002014,212.442108 359.347260,202.466431 356.388275,191.070908 
	C349.822479,165.785019 350.251801,140.313126 356.803528,115.049812 
	C358.075928,110.143425 360.317596,105.319443 362.957703,100.970779 
	C369.036102,90.958755 378.413208,86.594597 389.980255,87.330872 
	C401.850708,88.086449 409.393677,94.880524 414.185272,105.393929 
	C418.962494,115.875931 420.714996,127.027550 421.506775,138.324417 
	C422.709473,155.484177 422.579224,172.634277 417.978058,189.389969 
	C416.712158,193.999847 415.006195,198.611237 412.722260,202.796310 
	C405.834412,215.417374 394.627930,219.763916 377.787292,216.545258 
z"/>
</svg>